<svg width="107" height="112" viewBox="0 0 107 112" fill="none" xmlns="http://www.w3.org/2000/svg">
<path d="M67.7196 42.6429L53.6711 61.3274L60.5456 65.3992L67.7196 42.6429Z" fill="#00B6AA"/>
<path d="M84.7503 75.1814L81.8311 111.926H63.0413L67.2624 95.0524L61.0344 95.0076L53.9076 112H36.3386L54.045 74.2972" fill="#171766"/>
<path d="M67.7196 42.6431L53.6711 76.3031C53.6711 76.3031 77.4749 84.7421 90.8161 77.7312L86.2572 43.2699L67.7196 42.6431Z" fill="#171766"/>
<path d="M82.8943 34.4858L74.6323 35.4976L74.1571 40.8363C76.7947 40.308 79.4368 39.7999 82.0924 39.3343L82.8943 34.4858Z" fill="#171766"/>
<path d="M83.4146 43.0816L82.7749 49.7164L76.6257 56.0961L75.6234 57.137L75.3509 56.4542L72.5353 49.4165L72.756 42.2936H80.7567L83.4146 43.0816Z" fill="white"/>
<path d="M74.1593 40.8363L73.925 43.4687L77.4343 47.113L81.3671 43.7597L82.0969 39.3365C79.4367 39.7999 76.7946 40.308 74.1593 40.8363Z" fill="#F2583E"/>
<path d="M87.753 29.5598C88.6239 24.3011 85.0403 19.3364 79.7488 18.4709C74.4573 17.6054 69.4617 21.1668 68.5908 26.4255C67.7198 31.6842 71.3034 36.6488 76.5949 37.5144C81.8864 38.3799 86.8821 34.8185 87.753 29.5598Z" fill="#F2583E"/>
<path d="M82.398 33.0677C82.5933 31.8755 81.7792 30.7518 80.5796 30.5577C79.38 30.3636 78.2492 31.1726 78.0539 32.3648C77.8586 33.5569 78.6727 34.6807 79.8723 34.8748C81.0719 35.0689 82.2027 34.2598 82.398 33.0677Z" fill="#F6EF97"/>
<path d="M75.5265 18.7984C74.5715 18.8701 73.6142 18.9417 72.6569 19.0133C72.4002 19.0335 72.1366 19.0536 71.9046 19.1633C71.6726 19.273 71.4744 19.4968 71.4721 19.752C71.4699 20.0296 71.6839 20.2579 71.9069 20.4236C72.5713 20.9205 73.443 21.1399 74.2652 21.0145C73.9476 21.4465 73.2606 21.7107 73.3169 22.2434C73.3597 22.6508 73.835 22.8545 74.2426 22.915C74.9522 23.0202 75.6865 22.9441 76.3577 22.6934C76.2473 23.1097 76.1437 23.5753 76.3554 23.9492C76.5649 24.323 77.0244 24.4841 77.4546 24.5379C79.0922 24.7416 80.6396 23.8439 82.0586 23.0068C82.2388 22.8993 82.4821 22.7963 82.642 22.9306C82.7343 23.0068 82.7591 23.1321 82.7771 23.2507C83.0339 24.9251 82.642 26.6264 82.6533 28.3187C82.6578 29.1603 82.8019 30.0781 83.4259 30.6467C83.8921 31.072 84.5498 31.2242 85.1805 31.2824C85.8225 31.3406 86.5004 31.3115 87.0613 30.9959C87.4284 30.7899 87.7213 30.4721 87.9713 30.1341C88.7934 29.0193 89.1966 27.5598 88.8497 26.2212C88.7349 25.7802 88.5366 25.3482 88.21 25.0281" fill="#00B6AA"/>
<path d="M86.845 35.4974C88.859 35.4974 90.4917 33.8749 90.4917 31.8733C90.4917 29.8718 88.859 28.2493 86.845 28.2493C84.8309 28.2493 83.1983 29.8718 83.1983 31.8733C83.1983 33.8749 84.8309 35.4974 86.845 35.4974Z" fill="#F2583E"/>
<path d="M90.0458 18.7471L89.4872 20.9901L88.5457 24.7574L75.504 18.7471L77.3308 16.6609L79.7409 13.9053C79.7409 13.9053 86.309 14.3799 90.0458 18.7471Z" fill="#171766"/>
<path d="M89.4872 20.9901L88.5457 24.7574L75.504 18.7471L77.3308 16.6609L89.4872 20.9901Z" fill="#00B6AA"/>
<path d="M72.3889 16.1998L93.4222 26.0177C93.4222 26.0177 91.6 29.747 79.7409 23.3293C71.6028 18.9262 72.3889 16.1998 72.3889 16.1998Z" fill="#171766"/>
<path d="M69.9045 24.0164C69.9045 24.0164 68.7557 26.5257 70.5239 27.0943C72.292 27.6629 73.7246 25.4647 73.7246 25.4647C73.7246 25.4647 71.5893 27.0988 70.4811 26.1676C69.6612 25.4803 69.9045 24.0164 69.9045 24.0164Z" fill="#171766"/>
<path d="M76.7068 26.9399C76.7068 26.9399 75.5581 29.4493 77.3262 30.0178C79.0944 30.5864 80.527 28.3882 80.527 28.3882C80.527 28.3882 78.3916 30.0223 77.2834 29.0911C76.4613 28.4039 76.7068 26.9399 76.7068 26.9399Z" fill="#171766"/>
<path d="M75.7157 24.3521L71.4721 28.2L73.5939 29.7871L76.1459 24.7573L75.7157 24.3521Z" fill="#FFB459"/>
<path d="M84.9981 33.3309L84.7503 30.797L88.7462 29.4516V30.112L85.4283 31.1618L86.104 33.5749L84.9981 33.3309Z" fill="#171766"/>
<path d="M77.4344 47.111L75.2157 49.0809L72.1276 41.9357L74.1593 40.8366L77.4344 47.111Z" fill="#00B6AA"/>
<path d="M78.9029 49.7163L77.4343 47.1107L81.759 41.3668L84.0182 43.1218L78.9029 49.7163Z" fill="#00B6AA"/>
<path d="M77.9749 47.111L76.6257 56.0962L75.6234 57.1371L75.3508 56.4544L77.0582 47.111H77.9749Z" fill="#00B6AA"/>
<path d="M71.7086 34.356C71.7086 34.356 67.0573 34.8776 64.9648 36.8161C64.1539 37.5705 63.6246 40.5611 63.0322 44.9395C63.03 44.9462 63.03 44.953 63.0277 44.9597C62.093 51.8542 60.9893 62.1736 58.3449 72.616C54.0135 89.7068 43.2581 95.8223 43.2581 95.8223C35.8273 95.4664 30.3403 93.7473 26.3152 91.2357C15.5531 84.5225 15.249 72.1527 16.2243 65.0813C14.7827 62.1221 15.2828 57.8264 15.4066 57.7929C21.5175 56.2013 27.7523 59.2591 32.4306 62.6839C34.0681 63.8838 35.5164 65.1283 36.699 66.2319C38.5752 67.9846 39.7938 69.3859 40.0664 69.7016V69.7038C40.1046 69.7486 40.1227 69.7709 40.1227 69.7709L36.467 73.4488L38.1811 77.2788C38.1811 77.2788 59.3292 37.0176 63.0345 34.112C68.7467 31.8735 70.6094 32.3638 70.6094 32.3638L71.7086 34.356Z" fill="#F6EF97"/>
<path d="M56.8892 48.539C57.79 47.6438 57.79 46.1925 56.8892 45.2973C55.9885 44.4022 54.5281 44.4022 53.6274 45.2973C52.7266 46.1925 52.7266 47.6438 53.6274 48.539C54.5281 49.4341 55.9885 49.4341 56.8892 48.539Z" fill="#FFB459"/>
<path d="M60.0204 43.6389C60.9211 42.7437 60.9211 41.2924 60.0204 40.3973C59.1196 39.5021 57.6593 39.5021 56.7585 40.3973C55.8578 41.2924 55.8578 42.7437 56.7585 43.6389C57.6593 44.534 59.1196 44.534 60.0204 43.6389Z" fill="#FFB459"/>
<path d="M54.426 52.5803C54.7174 51.3479 53.9483 50.1141 52.7082 49.8246C51.4681 49.5351 50.2266 50.2994 49.9353 51.5318C49.644 52.7642 50.4131 53.998 51.6532 54.2875C52.8933 54.577 54.1347 53.8127 54.426 52.5803Z" fill="#FFB459"/>
<path d="M51.3521 57.7299C51.6461 56.4981 50.8797 55.2627 49.6402 54.9705C48.4008 54.6784 47.1577 55.44 46.8637 56.6718C46.5697 57.9036 47.3361 59.139 48.5756 59.4312C49.815 59.7233 51.0581 58.9617 51.3521 57.7299Z" fill="#FFB459"/>
<path d="M48.2784 62.8703C48.5724 61.6385 47.806 60.4031 46.5665 60.1109C45.3271 59.8188 44.0839 60.5804 43.7899 61.8122C43.4959 63.044 44.2624 64.2794 45.5018 64.5715C46.7413 64.8637 47.9844 64.102 48.2784 62.8703Z" fill="#FFB459"/>
<path d="M45.2011 68.0002C45.4925 66.7677 44.7234 65.534 43.4833 65.2445C42.2432 64.9549 41.0017 65.7193 40.7104 66.9517C40.4191 68.1841 41.1882 69.4179 42.4283 69.7074C43.6684 69.9969 44.9098 69.2326 45.2011 68.0002Z" fill="#FFB459"/>
<path d="M59.0183 37.6599L65.0391 40.1625L66.3455 38.9112L59.9351 36.2608" fill="#F2583E"/>
<path d="M63.0278 44.9598C62.093 51.8543 60.9893 62.1736 58.3449 72.6161C54.0135 89.7069 43.2581 95.8224 43.2581 95.8224C43.2581 95.8224 37.0774 93.9219 34.6402 91.2358L42.6184 92.5229C42.6184 92.5229 60.7258 58.8428 63.0278 44.9598Z" fill="#FFB459"/>
<path d="M32.4306 62.684C30.2615 65.3366 28.3965 68.2287 27.045 71.3671C25.2116 75.6247 24.8489 80.8896 25.153 85.5098C25.2814 87.4573 25.6778 89.3891 26.3175 91.2358C15.5553 84.5226 15.2513 72.1528 16.2266 65.0814C14.7828 62.1222 15.285 57.8265 15.4067 57.793C21.5198 56.2014 27.7523 59.2592 32.4306 62.684Z" fill="#FFB459"/>
<path d="M40.0664 69.7013L36.467 73.4485C19.0556 74.3663 17.1838 61.269 17.1838 61.269L28.151 62.2136L36.6967 66.2317C38.5753 67.9844 39.7938 69.3857 40.0664 69.7013Z" fill="#FFB459"/>
<path d="M40.1227 69.7708C21.7878 75.2797 15.4067 57.7928 15.4067 57.7928C27.5293 54.6343 40.1227 69.7708 40.1227 69.7708Z" fill="#171766"/>
<path d="M69.8662 30.5283L71.1658 35.5403L72.3394 35.0903L71.5555 30.5283H69.8662Z" fill="#171766"/>
<path d="M72.7245 30.8998L70.8009 31.6811L71.4316 33.6845L73.5782 34.0785L72.7245 30.8998Z" fill="#171766"/>
<path d="M22.8758 39.1868C16.0441 49.0607 24.0515 59.3129 29.7637 68.0318C28.9416 67.949 28.1217 67.799 27.4054 67.5326C24.68 66.5275 11.3005 55.221 13.4178 44.624C14.1813 40.7895 16.0779 37.2997 17.4519 33.6376C18.8259 29.9732 19.434 25.6104 17.2649 22.349C16.4788 21.1648 15.3864 20.2224 14.33 19.271C11.573 16.7931 8.91737 14.089 7.27534 10.776C5.63332 7.46084 5.12426 3.42039 6.70998 0.0783467L13.5799 0H27.0428C25.3985 3.20774 25.3129 7.08926 27.6059 10.7581C30.0836 14.3397 33.0117 17.2497 32.5612 21.7267C31.8855 28.6659 26.7049 33.3667 22.8758 39.1868Z" fill="#00B6AA"/>
<path d="M62.2935 15.0112C55.9867 17.2497 46.9769 17.6974 46.3012 25.7559C45.8507 31.1283 46.3012 37.396 41.1206 40.5299C37.0662 42.7683 32.336 44.1114 30.3088 48.3645C27.696 54.5293 28.6375 62.1043 32.0094 68.1101C31.3202 68.1258 30.5408 68.1101 29.7638 68.0318C24.0516 59.3129 16.0441 49.0607 22.8758 39.1868C26.7049 33.3667 31.8856 28.6659 32.5613 21.7267C33.0118 17.2497 30.0836 14.3397 27.6059 10.7581C25.3129 7.08926 25.3985 3.20774 27.0428 0H70.8122C71.1726 6.23192 68.258 12.8556 62.2935 15.0112Z" fill="#7BD6AA"/>
<path d="M97.6906 0C96.6072 3.38681 95.3525 6.74677 93.3659 9.69484C91.19 12.9205 88.0208 15.6425 84.2187 16.5468C81.8852 17.102 79.4481 16.9542 77.056 17.1423C74.6639 17.3303 72.1501 17.9369 70.4878 19.6561C68.6183 21.5856 68.1858 24.527 66.4515 26.5752C62.8228 30.8686 55.4303 29.4807 51.1641 33.1496C46.6277 37.049 47.2877 45.2127 42.1138 48.2324C40.0844 49.4166 31.2458 51.4357 31.0431 57.2893C30.8764 62.1289 34.379 67.9355 34.379 67.9355C34.379 67.9355 33.3654 68.0788 32.0094 68.1101C28.6375 62.1043 27.696 54.5293 30.3088 48.3645C32.336 44.1114 37.0661 42.7683 41.1205 40.5298C46.3011 37.396 45.8506 31.1282 46.3011 25.7559C46.9769 17.6974 55.9866 17.2497 62.2935 15.0112C68.2579 12.8556 71.1726 6.23192 70.8122 0H97.6906Z" fill="#00B6AA"/>
<path d="M98.9947 73.4936C98.141 78.3198 94.2443 82.893 88.5006 85.9866C81.6892 89.6554 72.2808 91.2425 62.2777 88.7018C60.4442 88.2362 58.5905 87.6318 56.7299 86.8752L64.1923 66.5118C65.5978 66.8118 67.0799 67.1028 68.5778 67.3557C75.4162 68.513 82.6262 68.8958 84.7503 66.0037C89.1133 60.0672 84.7503 49.083 84.7503 49.083C84.7503 49.083 82.7411 46.6364 86.2572 43.2697C86.2572 43.2697 97.7288 56.0312 99.1096 68.1884C99.3146 69.9837 99.3011 71.7677 98.9947 73.4936Z" fill="#00B6AA"/>
<path d="M60.2122 65.1888L59.0184 57.3586L57.5656 56.7251L56.498 61.7482L49.8465 56.5192L48.7338 58.104L52.1823 62.8832L46.8012 61.1953L45.5466 63.7853L51.8354 67.4787L43.4653 67.3579L42.9563 69.3904L61.111 76.6207L64.7487 69.3904L60.2122 65.1888Z" fill="#F1573D"/>
<path d="M43.4653 69.122L43.7243 67.479C43.7243 67.479 45.265 67.9401 45.1118 68.7706C44.9609 69.601 43.4653 69.122 43.4653 69.122Z" fill="#171766"/>
<path d="M46.4498 63.3868L47.1886 61.7773C47.1886 61.7773 49.0626 62.91 48.8329 63.6889C48.6076 64.4679 46.4498 63.3868 46.4498 63.3868Z" fill="#171766"/>
<path d="M49.3397 58.18L50.0988 57.1996C50.0988 57.1996 51.9728 58.6322 51.3128 59.2747C50.6574 59.9149 49.3397 58.18 49.3397 58.18Z" fill="#171766"/>
<path d="M57.8449 57.4752L59.059 57.8535C59.059 57.8535 59.3631 60.0919 58.7054 59.942C58.0477 59.7898 57.8449 57.4752 57.8449 57.4752Z" fill="#171766"/>
<path d="M69.5373 64.101L68.5777 67.3557L62.2777 88.7018L61.1492 92.5229L55.8042 89.398L56.7299 86.8752L64.1922 66.5118L65.5234 62.8832L69.5373 64.101Z" fill="white"/>
<path d="M98.9947 73.4937C98.1411 78.3199 94.2443 82.8931 88.5006 85.9867C87.264 83.2647 87.0298 80.0905 87.9262 77.2342C89.2574 72.9856 93.0077 69.6548 97.3302 68.493C97.9 68.3385 98.506 68.2289 99.1096 68.1886C99.3146 69.9838 99.3011 71.7679 98.9947 73.4937Z" fill="#FFB459"/>
<path d="M49.1077 53.0743L43.7266 49.5957L50.8713 36.7804L55.8042 37.6601L49.1077 53.0743Z" fill="white"/>
<path d="M50.547 39.2001L58.4531 38.2129L59.4622 39.4307L54.8897 41.8169L61.7596 46.7572L60.5276 48.2525L54.964 46.2513L58.0589 50.9409L55.8943 52.8436L50.6078 47.8317L52.9999 55.8051L51.1687 56.8438L45.5826 49.6359" fill="#F1573D"/>
<path d="M51.2903 56.2842L52.8107 55.588C52.8107 55.588 51.9458 54.2405 51.1845 54.612C50.4209 54.9836 51.2903 56.2842 51.2903 56.2842Z" fill="#171766"/>
<path d="M56.0339 51.8725L57.3921 50.7286C57.3921 50.7286 55.7861 49.2445 55.0946 49.6743C54.4009 50.1041 56.0339 51.8725 56.0339 51.8725Z" fill="#171766"/>
<path d="M60.2911 47.6908L61.0344 46.697C61.0344 46.697 59.1378 45.2957 58.6941 46.0993C58.2526 46.9051 60.2911 47.6908 60.2911 47.6908Z" fill="#171766"/>
<path d="M58.6603 39.3658L57.9643 38.307C57.9643 38.307 55.7141 38.6248 56.0385 39.2136C56.3651 39.8023 58.6603 39.3658 58.6603 39.3658Z" fill="#171766"/>
<path d="M2.66238 86.7855L10.1833 90.6805L15.5531 79.5888L13.1588 98.354L7.78894 95.0298L0 108.344L2.66238 86.7855Z" fill="#FFB459"/>
<path d="M21.4274 90.7995L24.3917 102.717L17.4722 104.369L22.4996 110.388V105.195L30.0137 104.723L21.4274 90.7995Z" fill="#F6EF97"/>
<path d="M39.6587 61.3277L48.7 54.8965L46.6908 52.123L39.6587 61.3277Z" fill="#00B6AA"/>
<path d="M35.6179 59.2748L40.3548 44.3777L37.109 44.9597L35.6179 59.2748Z" fill="#F1573D"/>
<path d="M13.1588 56.7254L2.41913 50.5203L5.60408 45.9896L13.1588 56.7254Z" fill="#00B6AA"/>
<path d="M10.2216 44.9598L3.11285 29.4517L9.2958 26.179L10.2216 44.9598Z" fill="#F6EF97"/>
<path d="M10.7622 59.2747L1.10596 63.5726L2.8043 66.4916L10.7622 59.2747Z" fill="#F1573D"/>
<path d="M95.0147 32.7152L99.247 38.4972L106.119 30.8998L101.184 45.9893L94.6611 38.4457L87.3857 42.0183L95.0147 32.7152Z" fill="#FFB459"/>
<path d="M91.6653 45.9896C91.6653 45.9896 103.123 56.9246 103.299 56.0001C103.475 55.0756 106.119 52.1231 106.119 52.1231L91.6653 45.9896Z" fill="#171766"/>
<path d="M96.7513 30.5281L107 19.3313L103.651 16.6608L96.7513 30.5281Z" fill="#171766"/>
<path d="M86.7483 89.9422L101.876 106.767L107 99.9348L86.7483 89.9422Z" fill="#FFB459"/>
<path d="M90.8161 88.8989L104.885 91.2359V86.9716L90.8161 88.8989Z" fill="#F6EF97"/>
<path d="M85.4959 95.0299L86.8451 108.344L94.4854 106.766L85.4959 95.0299Z" fill="#F6EF97"/>
<path d="M8.60432 77.3528C8.60432 78.1363 7.96463 78.772 7.17627 78.772C6.38792 78.772 5.74823 78.1363 5.74823 77.3528C5.74823 76.5694 6.38792 75.9336 7.17627 75.9336C7.96463 75.9359 8.60432 76.5694 8.60432 77.3528Z" fill="#7BD6AA"/>
<path d="M99.9678 83.0161C100.921 83.0161 101.693 82.2484 101.693 81.3014C101.693 80.3544 100.921 79.5867 99.9678 79.5867C99.0149 79.5867 98.2424 80.3544 98.2424 81.3014C98.2424 82.2484 99.0149 83.0161 99.9678 83.0161Z" fill="#171766"/>
<path d="M99.9678 61.5694C101.137 61.5694 102.085 60.6273 102.085 59.4652C102.085 58.3031 101.137 57.3611 99.9678 57.3611C98.7985 57.3611 97.8505 58.3031 97.8505 59.4652C97.8505 60.6273 98.7985 61.5694 99.9678 61.5694Z" fill="#7BD6AA"/>
<path d="M96.1679 14.9866C97.0972 14.9866 97.8505 14.238 97.8505 13.3145C97.8505 12.391 97.0972 11.6424 96.1679 11.6424C95.2387 11.6424 94.4854 12.391 94.4854 13.3145C94.4854 14.238 95.2387 14.9866 96.1679 14.9866Z" fill="#FFB459"/>
<path d="M7.72493 19.0573C8.02166 17.8084 7.24349 16.5569 5.98683 16.262C4.73018 15.9671 3.47091 16.7405 3.17418 17.9894C2.87745 19.2382 3.65562 20.4897 4.91227 20.7846C6.16893 21.0795 7.4282 20.3061 7.72493 19.0573Z" fill="#FFB459"/>
<path d="M52.2026 34.4858C53.199 34.4858 54.0068 33.683 54.0068 32.6928C54.0068 31.7025 53.199 30.8998 52.2026 30.8998C51.2061 30.8998 50.3983 31.7025 50.3983 32.6928C50.3983 33.683 51.2061 34.4858 52.2026 34.4858Z" fill="#FFB459"/>
<path d="M11.4918 68.8676C12.0318 67.5979 11.4338 66.1336 10.1562 65.5969C8.87858 65.0603 7.40514 65.6546 6.86516 66.9243C6.32519 68.1939 6.92315 69.6583 8.20076 70.1949C9.47837 70.7315 10.9518 70.1372 11.4918 68.8676Z" fill="#171766"/>
<path d="M34.8543 101.309C35.6753 101.309 36.3409 100.648 36.3409 99.8318C36.3409 99.0159 35.6753 98.3544 34.8543 98.3544C34.0332 98.3544 33.3677 99.0159 33.3677 99.8318C33.3677 100.648 34.0332 101.309 34.8543 101.309Z" fill="#FFB459"/>
<path d="M13.4561 104.664C14.4314 104.664 15.222 103.879 15.222 102.909C15.222 101.94 14.4314 101.154 13.4561 101.154C12.4808 101.154 11.6902 101.94 11.6902 102.909C11.6902 103.879 12.4808 104.664 13.4561 104.664Z" fill="#7BD6AA"/>
</svg>
